<?xml version="1.0" encoding="UTF-8" standalone="no"?>
<svg
   xmlns:dc="http://purl.org/dc/elements/1.1/"
   xmlns:cc="http://creativecommons.org/ns#"
   xmlns:rdf="http://www.w3.org/1999/02/22-rdf-syntax-ns#"
   xmlns:svg="http://www.w3.org/2000/svg"
   xmlns="http://www.w3.org/2000/svg"
   width="80mm"
   height="80mm"
   viewBox="0 0 80 80.000004"
   version="1.1"
   id="svg8">
  <defs
     id="defs2" />
  <metadata
     id="metadata5">
    <rdf:RDF>
      <cc:Work
         rdf:about="">
        <dc:format>image/svg+xml</dc:format>
        <dc:type
           rdf:resource="http://purl.org/dc/dcmitype/StillImage" />
        <dc:title></dc:title>
      </cc:Work>
    </rdf:RDF>
  </metadata>
  <g
     id="layer1">
    <path
       style="fill:#008000;stroke-width:0.264583"
       id="path837"
       d="m 54.750807,37.900239 c -1.157466,2.99169 -13.622665,-8.072992 -15.46416,-5.54055 -1.900939,2.614189 10.518514,12.053652 8.075418,14.17116 -2.3667,2.051292 -9.512058,-13.626705 -12.321071,-12.095415 -2.899688,1.58072 3.137255,16.161042 0.07272,17.151406 -2.968703,0.959395 -2.225426,-13.43872 -5.34884,-13.385403 -3.224237,0.05504 -3.306697,15.33428 -6.441931,14.82484 C 20.285753,52.532766 29.78333,36.961698 26.826041,35.945198 23.773292,34.895886 15.258866,50.24034 12.612634,48.528194 10.04915,46.869588 21.580861,34.51786 19.389051,32.305055 17.12649,30.020821 8.726507,42.283135 6.8425519,39.748626 5.0175087,37.293371 19.310381,30.670195 18.042119,27.906247 16.732918,25.053079 3.0469862,31.964158 2.2813758,28.77924 1.5397062,25.693915 18.011048,27.292124 18.077961,24.207067 18.147035,21.022426 1.7873593,19.307509 2.724004,16.147126 3.6313596,13.085568 16.407187,20.833187 17.841074,18.09062 19.321247,15.259522 6.5534663,7.8546777 8.3499245,5.1843423 10.090207,2.5975092 17.522107,16.650479 20.037747,14.658841 22.634592,12.602913 14.931859,-0.24808727 17.864472,-1.7727615 c 2.84091,-1.4769971 5.014725,14.0205545 8.005634,13.4246655 3.087455,-0.615123 -0.833405,-13.2409601 2.292973,-13.6925879 3.028615,-0.4375053 -0.189452,14.7613729 2.870029,15.5306589 3.158241,0.794119 4.630541,-17.5064788 7.623458,-16.52908 2.899327,0.9468353 -6.83161,15.905434 -4.147731,17.336 2.770514,1.476743 12.520418,-10.0760618 15.042672,-8.1178548 2.443383,1.8969732 -10.588282,9.1387028 -8.90572,11.7021238 1.736874,2.646167 14.762887,-5.245151 16.16831,-2.440737 1.361475,2.71672 -14.172618,4.832788 -13.866352,7.868882 0.316152,3.134099 13.743771,-1.418253 13.553976,1.862596 -0.183859,3.178256 -12.925061,-1.328099 -13.634235,1.806774 -0.732065,3.236065 13.07815,7.833298 11.883321,10.92156 z"
       transform="matrix(1.3725807,0,0,1.3365253,-0.59799821,6.6123834)" />
    <text
       xml:space="preserve"
       style="font-style:normal;font-weight:normal;font-size:7.05556px;line-height:1.25;font-family:sans-serif;fill:#000000;fill-opacity:1;stroke:none;stroke-width:0.264583"
       x="40.001724"
       y="41.893082"
       id="text833"><tspan
         id="tspan831"
         x="40.001724"
         y="41.893082"
         style="font-size:7.05556px;text-align:center;text-anchor:middle;fill:#ffffff;stroke-width:0.264583">{{ package.name }}</tspan></text>
  </g>
</svg>
